<svg width="1379" height="1439" viewBox="0 0 1379 1439" fill="none" xmlns="http://www.w3.org/2000/svg">
<path d="M232.872 558.843C385.856 477.227 542.322 402.301 702.558 336.204C771.894 307.602 837.31 270.367 903.561 235.42C971.823 199.413 1040.25 163.735 1109.44 129.547C1180.2 94.5868 1250.8 58.4842 1322.64 25.8113C1338.23 18.721 1353.73 11.3681 1369.39 4.43302C1371.68 3.41469 1378.5 0.838645 1376.7 2.6006C1363.56 15.4913 1345.22 27.0288 1331.07 37.9257C1238.84 109.001 1151.92 186.897 1065.03 264.332C809.089 492.429 564.572 732.901 302.583 954.24C239.203 1007.79 174.587 1059.58 109.506 1111.01C75.1425 1138.17 39.3055 1164.57 9.71525 1197.14C6.73451 1200.42 -0.958057 1210.24 3.21159 1208.74C29.0601 1199.48 54.0737 1188.01 79.223 1176.98C147.279 1147.14 238.648 1105.99 303.396 1073.96C428.158 1012.24 547.795 943.592 663.231 865.774C809.27 767.326 947.488 657.563 1095.42 561.897C1147.34 528.323 1203.61 492.646 1263.8 475.366C1265.86 474.774 1291.56 466.642 1294.49 472.516C1295.22 473.98 1295.51 475.846 1295 477.402C1290.45 491.293 1274.04 516.162 1268.17 524.638C1177.51 655.526 1072.16 776.31 976.321 903.339C874.225 1038.66 781.355 1178.12 693.209 1322.76C670.283 1360.38 642.341 1426.53 592.199 1436.57C587.419 1437.53 580.395 1436.57 575.228 1436.57C568.364 1436.57 580.688 1423.8 584.882 1418.35C700.653 1268.08 825.5 1122.04 960.163 988.343C1012.88 936.007 1071.17 884.836 1135.46 847.145C1152.05 837.416 1172.98 822.712 1193.18 822.712" stroke="#FFA500" stroke-width="3" stroke-linecap="round"/>
</svg>
