<svg width="24" height="24" viewBox="0 0 30 26" fill="none" xmlns="http://www.w3.org/2000/svg">
<path d="M31.25 1.74987C29.9442 2.59422 28.4983 3.24001 26.9682 3.66237C26.1469 2.79676 25.0555 2.18324 23.8414 1.90478C22.6274 1.62632 21.3493 1.69637 20.1801 2.10544C19.0109 2.51451 18.007 3.24288 17.3041 4.19202C16.6012 5.14116 16.2332 6.26529 16.25 7.41237V8.66237C13.8536 8.71933 11.479 8.23214 9.33774 7.24418C7.19647 6.25622 5.35498 4.79817 3.97727 2.99987C3.97727 2.99987 -1.47727 14.2499 10.7955 19.2499C7.98708 20.9973 4.64158 21.8735 1.25 21.7499C13.5227 27.9999 28.5227 21.7499 28.5227 7.37487C28.5227 7.02487 28.4818 6.67487 28.4136 6.33737C29.8054 5.07924 30.7875 3.49077 31.25 1.74987V1.74987Z" stroke="white" stroke-width="2" stroke-linecap="round" stroke-linejoin="round"/>
</svg>
