<svg width="483" height="554" viewBox="0 0 483 554" fill="none" xmlns="http://www.w3.org/2000/svg">
<g opacity="0.3">
<path d="M438.148 94.629C435.95 94.0437 433.653 93.9651 431.443 94.3996C429.233 94.8341 427.173 95.7693 425.43 97.1294C424.765 97.5851 424.244 98.2091 423.922 98.9356C423.6 99.662 423.49 100.464 423.602 101.256L425.951 111.484L443.992 107.989L441.605 97.8798C441.381 97.0921 440.941 96.3731 440.332 95.8003C439.723 95.2275 438.968 94.8224 438.148 94.629Z" fill="#FFA500"/>
<path opacity="0.07" d="M438.148 94.629C435.95 94.0437 433.653 93.9651 431.443 94.3996C429.233 94.8341 427.173 95.7693 425.43 97.1294C424.765 97.5851 424.244 98.2091 423.922 98.9356C423.6 99.662 423.49 100.464 423.602 101.256L425.951 111.484L443.992 107.989L441.605 97.8798C441.381 97.0921 440.941 96.3731 440.332 95.8003C439.723 95.2275 438.968 94.8224 438.148 94.629Z" fill="black"/>
<path d="M440.523 104.778C438.325 104.189 436.027 104.109 433.816 104.543C431.606 104.978 429.545 105.915 427.804 107.278C427.105 107.69 426.56 108.303 426.243 109.034C425.926 109.766 425.853 110.579 426.033 111.364C426.214 112.149 426.64 112.866 427.253 113.417C427.865 113.969 428.634 114.328 429.455 114.445C431.663 115.032 433.972 115.109 436.191 114.67C438.411 114.231 440.479 113.288 442.228 111.918C442.942 111.515 443.5 110.901 443.824 110.164C444.148 109.427 444.221 108.604 444.032 107.813C443.843 107.021 443.402 106.302 442.772 105.757C442.142 105.212 441.355 104.87 440.523 104.778Z" fill="#FFA500"/>
<path opacity="0.25" d="M440.523 104.778C438.325 104.189 436.027 104.109 433.816 104.543C431.606 104.978 429.545 105.915 427.804 107.278C427.105 107.69 426.56 108.303 426.243 109.034C425.926 109.766 425.853 110.579 426.033 111.364C426.214 112.149 426.64 112.866 427.253 113.417C427.865 113.969 428.634 114.328 429.455 114.445C431.663 115.032 433.972 115.109 436.191 114.67C438.411 114.231 440.479 113.288 442.228 111.918C442.942 111.515 443.5 110.901 443.824 110.164C444.148 109.427 444.221 108.604 444.032 107.813C443.843 107.021 443.402 106.302 442.772 105.757C442.142 105.212 441.355 104.87 440.523 104.778Z" fill="black"/>
<path d="M145.46 472.845C131.819 468.457 122.346 453.798 115.599 424.302C107.355 388.998 109.691 362.51 121.461 335.39C132.678 309.708 145.379 305.281 155.868 307.171C166.356 309.06 174.04 302.277 177.392 289.169C179.255 281.823 181.845 279.426 183.877 280.036C185.909 280.646 206.378 287.274 208.604 287.99C210.829 288.705 211.411 290.857 211.705 294.182C212 297.507 212.039 299.789 212.341 302.244C223.903 292.169 228.058 285.473 228.608 274.432C228.936 269.441 228.218 264.415 226.496 259.652C224.691 253.528 225.354 243.832 232.645 246.614C239.936 249.395 245.975 247.584 251.916 239.717C257.858 231.85 265.584 220.978 281.976 226.425C285.232 227.472 300.521 232.39 306.497 234.312C314.286 236.818 322.514 247.147 327.563 268.633C332.064 286.233 331.87 304.547 327.001 321.839C318.209 349.175 308.91 353.342 302.142 356.71C295.375 360.077 290.519 367.681 286.783 380.143C284.836 386.196 283.024 388.013 281.375 387.483C279.727 386.953 258.462 380.113 256.649 379.53C254.835 378.946 253.592 375.884 252.984 372.545L252.896 371.687L251.572 372.833C247.362 376.125 243.909 380.229 241.423 384.892C238.938 389.556 237.473 394.684 237.116 399.962C235.684 411.2 238.361 413.764 240.816 419.704C243.27 425.645 241.001 434.256 234.683 432.268C234.229 432.122 229.82 430.704 229.82 430.704C223.621 430.325 217.452 437.202 212.088 451.191C205.758 467.62 195.683 483.106 178.243 482.473C175.321 482.391 172.418 481.884 169.632 480.969C165.844 479.314 148.139 473.706 145.46 472.845Z" fill="#FFA500"/>
<path opacity="0.35" d="M145.46 472.845C131.819 468.457 122.346 453.798 115.599 424.302C107.355 388.998 109.691 362.51 121.461 335.39C132.678 309.708 145.379 305.281 155.868 307.171C166.356 309.06 174.04 302.277 177.392 289.169C179.255 281.823 181.845 279.426 183.877 280.036C185.909 280.646 206.378 287.274 208.604 287.99C210.829 288.705 211.411 290.857 211.705 294.182C212 297.507 212.039 299.789 212.341 302.244C223.903 292.169 228.058 285.473 228.608 274.432C228.936 269.441 228.218 264.415 226.496 259.652C224.691 253.528 225.354 243.832 232.645 246.614C239.936 249.395 245.975 247.584 251.916 239.717C257.858 231.85 265.584 220.978 281.976 226.425C285.232 227.472 300.521 232.39 306.497 234.312C314.286 236.818 322.514 247.147 327.563 268.633C332.064 286.233 331.87 304.547 327.001 321.839C318.209 349.175 308.91 353.342 302.142 356.71C295.375 360.077 290.519 367.681 286.783 380.143C284.836 386.196 283.024 388.013 281.375 387.483C279.727 386.953 258.462 380.113 256.649 379.53C254.835 378.946 253.592 375.884 252.984 372.545L252.896 371.687L251.572 372.833C247.362 376.125 243.909 380.229 241.423 384.892C238.938 389.556 237.473 394.684 237.116 399.962C235.684 411.2 238.361 413.764 240.816 419.704C243.27 425.645 241.001 434.256 234.683 432.268C234.229 432.122 229.82 430.704 229.82 430.704C223.621 430.325 217.452 437.202 212.088 451.191C205.758 467.62 195.683 483.106 178.243 482.473C175.321 482.391 172.418 481.884 169.632 480.969C165.844 479.314 148.139 473.706 145.46 472.845Z" fill="black"/>
<path opacity="0.1" d="M271.777 352.573L296.503 360.527C298.069 358.878 299.924 357.511 301.987 356.485C308.231 353.473 316.572 349.739 324.53 328.814L299.845 320.874C291.81 342.036 283.495 345.691 277.302 348.545C275.219 349.553 273.348 350.918 271.777 352.573Z" fill="black"/>
<path opacity="0.25" d="M299.896 320.716L324.375 328.59C325.075 326.414 325.826 324.08 326.64 321.548C331.53 304.259 331.723 285.94 327.202 268.342C322.153 246.856 313.94 236.619 306.123 234.061C300.147 232.139 284.858 227.221 281.602 226.174C289.391 228.679 297.632 238.969 302.681 260.455C307.182 278.055 306.988 296.369 302.12 313.661C301.47 316.246 300.678 318.566 299.896 320.716Z" fill="black"/>
<path opacity="0.1" d="M142.956 471.864C146.446 473.341 150.183 474.157 153.96 474.269C170.5 474.875 180.433 460.958 186.76 445.532L211.28 453.42C204.954 468.846 195.008 482.802 178.481 482.156C175.559 482.075 172.656 481.568 169.87 480.652C165.748 479.327 148.151 473.667 145.514 472.818C144.64 472.561 143.784 472.242 142.956 471.864Z" fill="black"/>
<path opacity="0.35" d="M208.42 287.712L183.694 279.759C185.26 280.262 186.5 282.626 186.795 285.951C187.485 293.419 186.687 299.012 192.005 304.389C197.993 310.375 203.102 309.618 211.9 302.058C211.611 299.564 211.55 296.926 211.265 293.997C210.979 291.067 210.028 288.229 208.42 287.712Z" fill="black"/>
<path opacity="0.25" d="M186.773 445.493L211.293 453.38C211.56 452.549 211.84 451.679 212.326 450.875C217.627 437.083 223.808 430.167 230.017 430.374L209.741 423.852L209.287 423.706C209.212 423.662 209.127 423.634 209.04 423.627C208.546 423.468 208.092 423.322 207.598 423.163C207.158 422.978 206.703 422.832 206.238 422.725C199.833 421.713 193.338 428.616 187.806 442.988L186.773 445.493Z" fill="black"/>
<path opacity="0.25" d="M204.084 467.169C203.043 468.737 201.893 470.234 200.642 471.649C201.925 470.259 203.077 468.76 204.084 467.169Z" fill="black"/>
<path opacity="0.25" d="M200.642 471.649C199.436 473.105 198.103 474.458 196.658 475.693C198.11 474.465 199.443 473.111 200.642 471.649Z" fill="black"/>
<path opacity="0.25" d="M216.583 411.91L241.063 419.784C238.443 413.79 235.89 411.266 237.322 400.028C237.629 394.759 239.035 389.629 241.455 384.947C243.876 380.265 247.261 376.127 251.407 372.78L252.772 371.647C252.25 367.421 250.769 363.336 248.433 359.688C243.756 353.164 238.462 354.778 226.886 364.893C222.73 368.231 219.339 372.368 216.918 377.052C214.497 381.735 213.096 386.869 212.801 392.141C211.369 403.379 214.046 405.943 216.542 411.896L216.583 411.91Z" fill="black"/>
<path d="M190.295 380.536C190.515 380.437 190.723 380.313 190.914 380.168C191.497 379.572 191.931 378.854 192.184 378.066C192.437 377.279 192.503 376.443 192.377 375.618L185.123 345.435C184.773 343.838 183.575 343.322 182.505 344.244C181.914 344.834 181.475 345.552 181.221 346.341C180.967 347.13 180.906 347.969 181.042 348.793L188.254 378.963C188.646 380.006 189.454 380.746 190.295 380.536Z" fill="#37474F"/>
<path d="M121.461 335.39C132.678 309.708 145.38 305.281 155.868 307.171C166.356 309.06 174.04 302.277 177.392 289.169C180.745 276.06 186.301 278.72 186.979 286.228C187.656 293.736 186.911 299.302 192.189 304.667C198.176 310.652 203.286 309.895 212.148 302.138C223.71 292.063 227.865 285.367 228.415 274.326C228.743 269.336 228.024 264.309 226.302 259.546C224.498 253.422 225.161 243.726 232.452 246.508C239.742 249.29 245.782 247.478 251.723 239.611C257.664 231.744 265.391 220.872 281.783 226.319C289.572 228.824 297.8 239.154 302.849 260.64C307.35 278.24 307.156 296.554 302.287 313.846C293.495 341.181 284.196 345.349 277.429 348.716C270.661 352.083 265.805 359.688 262.069 372.15C258.334 384.611 254.157 379.077 252.873 372.466C252.433 367.953 250.933 363.573 248.487 359.662C243.769 353.124 238.475 354.739 226.899 364.853C222.751 368.198 219.365 372.336 216.944 377.019C214.524 381.701 213.119 386.832 212.814 392.101C211.382 403.34 214.059 405.903 216.514 411.844C218.969 417.784 216.358 427.596 209.059 423.851C201.76 420.106 194.139 426.691 187.825 443.212C181.51 459.733 171.42 475.127 153.979 474.493C135.597 473.819 123.738 459.79 115.494 424.486C107.25 389.183 109.526 362.457 121.461 335.39Z" fill="#FFA500"/>
<path opacity="0.25" d="M121.461 335.39C132.678 309.708 145.38 305.281 155.868 307.171C166.356 309.06 174.04 302.277 177.392 289.169C180.745 276.06 186.301 278.72 186.979 286.228C187.656 293.736 186.911 299.302 192.189 304.667C198.176 310.652 203.286 309.895 212.148 302.138C223.71 292.063 227.865 285.367 228.415 274.326C228.743 269.336 228.024 264.309 226.302 259.546C224.498 253.422 225.161 243.726 232.452 246.508C239.742 249.29 245.782 247.478 251.723 239.611C257.664 231.744 265.391 220.872 281.783 226.319C289.572 228.824 297.8 239.154 302.849 260.64C307.35 278.24 307.156 296.554 302.287 313.846C293.495 341.181 284.196 345.349 277.429 348.716C270.661 352.083 265.805 359.688 262.069 372.15C258.334 384.611 254.157 379.077 252.873 372.466C252.433 367.953 250.933 363.573 248.487 359.662C243.769 353.124 238.475 354.739 226.899 364.853C222.751 368.198 219.365 372.336 216.944 377.019C214.524 381.701 213.119 386.832 212.814 392.101C211.382 403.34 214.059 405.903 216.514 411.844C218.969 417.784 216.358 427.596 209.059 423.851C201.76 420.106 194.139 426.691 187.825 443.212C181.51 459.733 171.42 475.127 153.979 474.493C135.597 473.819 123.738 459.79 115.494 424.486C107.25 389.183 109.526 362.457 121.461 335.39Z" fill="black"/>
<path d="M122.325 418.52C117.75 417.049 116.715 412.351 119.161 404.887C120.606 400.283 123.066 396.057 126.375 392.497L169.888 346.995L176.811 349.222L185.292 385.344L138.862 418.427C137.55 419.539 135.973 420.325 134.264 420.717C132.556 421.109 130.765 421.097 129.042 420.681C127.971 420.336 123.615 418.892 122.325 418.52Z" fill="#37474F"/>
<path d="M178.369 383.117L185.292 385.344L176.853 349.235L169.888 346.995L178.369 383.117Z" fill="#263238"/>
<path d="M169.888 346.995L126.375 392.497C123.066 396.057 120.606 400.283 119.161 404.887C116.705 412.522 117.75 417.049 122.325 418.52C124.047 418.936 125.838 418.948 127.547 418.556C129.256 418.164 130.832 417.379 132.145 416.266L178.534 383.17L169.888 346.995Z" fill="#455A64"/>
<path d="M167.673 323.627C167.314 321.047 167.618 318.436 168.56 316.027C169.501 313.618 171.05 311.487 173.068 309.822C173.374 309.616 173.693 309.427 174.023 309.256L173.934 309.533C175.247 309.126 176.401 310.065 176.773 312.018C176.98 313.187 176.9 314.38 176.54 315.501C176.179 316.621 175.549 317.637 174.699 318.466C174.529 318.624 174.328 318.747 174.107 318.828C173.886 318.909 173.649 318.947 173.411 318.939C173.173 318.932 172.937 318.879 172.718 318.783C172.499 318.688 172.3 318.552 172.134 318.383C172.276 319.793 172.785 321.152 173.614 322.335C174.443 323.518 175.563 324.485 176.871 325.145C181.986 327.62 195.182 320.384 207.614 316.089C208.061 315.841 208.559 315.687 209.076 315.639C209.593 315.59 210.118 315.648 210.615 315.808C211.113 315.968 211.573 316.227 211.964 316.568C212.356 316.908 212.671 317.323 212.889 317.786C213.075 318.152 213.195 318.545 213.243 318.947C213.451 320.116 213.371 321.31 213.01 322.43C212.65 323.55 212.019 324.566 211.169 325.395C209.602 326.594 207.998 325.641 207.328 323.2C207.147 322.094 207.215 320.969 207.525 319.902L207.278 319.822C199.686 322.924 194.026 328.219 184.978 332.598C175.93 336.978 168.007 335.171 167.673 323.627Z" fill="#263238"/>
<path d="M189.017 415.047C192.226 421.187 196.193 418.185 197.965 416.353C198.279 416.03 198.572 415.687 198.841 415.326L198.777 415.524C199.779 413.793 200.096 411.756 199.668 409.786C199.058 407.582 197.299 406.972 195.794 408.54C194.826 409.601 194.236 410.939 194.109 412.363C193.227 408.576 193.405 404.654 194.625 401.005C197.022 391.998 208.513 377.622 218.416 362.386C220.219 359.819 221.196 356.781 221.228 353.644L221.33 353.327C221.329 352.901 221.25 352.476 221.096 352.073C220.445 349.856 218.727 349.26 217.223 350.827C216.437 351.734 215.883 352.81 215.605 353.97C215.326 355.13 215.331 356.343 215.618 357.514C215.711 357.906 215.887 358.277 216.134 358.604C216.381 358.931 216.693 359.208 217.052 359.416L216.925 359.811C210.71 368.812 204.953 373.421 197.227 383.726C189.501 394.031 184.887 406.821 189.017 415.047Z" fill="#263238"/>
<path d="M232.556 334.544L224.615 300.56L405.399 148.657L412.117 150.817L417.121 172.158L239.273 336.705L232.556 334.544Z" fill="#263238"/>
<path d="M410.404 169.997L417.121 172.158L239.273 336.705L232.556 334.544L410.404 169.997Z" fill="#37474F"/>
<path d="M410.404 169.997L232.556 334.544L224.615 300.56L405.399 148.657L410.404 169.997Z" fill="#455A64"/>
<path d="M410.057 168.532L405.718 150.069L434.376 125.02L441.134 127.194L445.432 145.644L416.774 170.693L410.057 168.532Z" fill="#FFA500"/>
<path opacity="0.35" d="M410.057 168.532L405.718 150.069L434.376 125.02L441.134 127.194L445.432 145.644L416.774 170.693L410.057 168.532Z" fill="black"/>
<path d="M434.376 125.02L405.718 150.069L410.057 168.532L438.714 143.483L434.376 125.02Z" fill="#FFA500"/>
<path opacity="0.25" d="M434.376 125.02L405.718 150.069L410.057 168.532L438.714 143.483L434.376 125.02Z" fill="black"/>
<path d="M165.16 357.219L165.74 357.85L412.749 146.568L412.169 145.937L165.16 357.219Z" fill="#E0E0E0"/>
<path d="M413.901 151.348L167.548 365.58L166.975 364.959L413.328 150.727L413.901 151.348Z" fill="#E0E0E0"/>
<path d="M170.787 381.658L171.384 382.274L416.003 160.822L415.405 160.207L170.787 381.658Z" fill="#E0E0E0"/>
<path d="M414.946 155.875L169.632 374.37L169.046 373.789L414.373 155.254L414.946 155.875Z" fill="#E0E0E0"/>
<path d="M163.905 358.952C164.179 360.219 165.102 360.603 165.917 359.905C166.376 359.449 166.718 358.894 166.914 358.283C167.111 357.672 167.157 357.022 167.05 356.384C166.734 355.104 165.853 354.733 164.996 355.418C164.542 355.879 164.208 356.438 164.018 357.051C163.829 357.664 163.79 358.315 163.905 358.952Z" fill="#E0E0E0"/>
<path d="M165.977 366.647C166.264 367.874 167.174 368.297 168.003 367.56C168.453 367.107 168.789 366.558 168.983 365.955C169.177 365.351 169.225 364.709 169.122 364.079C168.848 362.812 167.938 362.388 167.11 363.126C166.65 363.582 166.309 364.137 166.113 364.748C165.916 365.358 165.87 366.008 165.977 366.647Z" fill="#E0E0E0"/>
<path d="M167.718 375.37C168.047 376.61 168.957 377.034 169.785 376.296C170.244 375.84 170.585 375.285 170.782 374.674C170.978 374.064 171.025 373.414 170.918 372.775C170.63 371.548 169.721 371.125 168.892 371.862C168.428 372.313 168.08 372.864 167.876 373.473C167.673 374.081 167.619 374.731 167.718 375.37Z" fill="#E0E0E0"/>
<path d="M169.728 383.262C170.002 384.529 170.912 384.953 171.74 384.215C172.199 383.759 172.541 383.204 172.737 382.593C172.934 381.982 172.98 381.333 172.873 380.694C172.585 379.467 171.676 379.043 170.847 379.781C170.396 380.234 170.061 380.783 169.867 381.386C169.673 381.99 169.625 382.631 169.728 383.262Z" fill="#E0E0E0"/>
<path d="M446.001 99.9051C441.66 98.758 437.123 98.6156 432.764 99.4894C428.404 100.363 424.345 102.229 420.919 104.933C419.622 105.826 418.608 107.047 417.983 108.467C417.358 109.888 417.145 111.454 417.368 113.001L423.869 141.284L459.38 134.372L452.838 106.077C452.362 104.562 451.476 103.19 450.273 102.104C449.07 101.018 447.594 100.258 446.001 99.9051Z" fill="#FFA500"/>
<path opacity="0.15" d="M446.001 99.9051C441.66 98.758 437.123 98.6156 432.764 99.4894C428.404 100.363 424.345 102.229 420.919 104.933C419.622 105.826 418.608 107.047 417.983 108.467C417.358 109.888 417.145 111.454 417.368 113.001L423.869 141.284L459.38 134.372L452.838 106.077C452.362 104.562 451.476 103.19 450.273 102.104C449.07 101.018 447.594 100.258 446.001 99.9051Z" fill="black"/>
<path d="M452.622 128.095C448.275 126.947 443.733 126.802 439.367 127.674C435.001 128.545 430.934 130.408 427.499 133.11C426.079 133.897 424.964 135.104 424.312 136.558C423.66 138.012 423.504 139.639 423.866 141.207C424.229 142.775 425.091 144.205 426.331 145.291C427.571 146.378 429.124 147.066 430.77 147.258C435.117 148.41 439.659 148.556 444.026 147.684C448.393 146.813 452.46 144.948 455.893 142.243C457.339 141.474 458.481 140.271 459.152 138.81C459.823 137.35 459.988 135.708 459.622 134.127C459.256 132.546 458.38 131.107 457.12 130.021C455.86 128.936 454.284 128.261 452.622 128.095Z" fill="#FFA500"/>
<path opacity="0.35" d="M452.622 128.095C448.275 126.947 443.733 126.802 439.367 127.674C435.001 128.545 430.934 130.408 427.499 133.11C426.079 133.897 424.964 135.104 424.312 136.558C423.66 138.012 423.504 139.639 423.866 141.207C424.229 142.775 425.091 144.205 426.331 145.291C427.571 146.378 429.124 147.066 430.77 147.258C435.117 148.41 439.659 148.556 444.026 147.684C448.393 146.813 452.46 144.948 455.893 142.243C457.339 141.474 458.481 140.271 459.152 138.81C459.823 137.35 459.988 135.708 459.622 134.127C459.256 132.546 458.38 131.107 457.12 130.021C455.86 128.936 454.284 128.261 452.622 128.095Z" fill="black"/>
<path d="M448.271 132.152C445.743 131.497 443.105 131.422 440.571 131.934C438.037 132.446 435.676 133.53 433.68 135.098C432.931 135.624 432.344 136.338 431.982 137.165C431.62 137.993 431.495 138.904 431.621 139.805L433.553 147.935L454.322 143.876L452.389 135.747C452.102 134.847 451.565 134.035 450.839 133.401C450.112 132.767 449.223 132.335 448.271 132.152Z" fill="#FFA500"/>
<path opacity="0.15" d="M448.271 132.152C445.743 131.497 443.105 131.422 440.571 131.934C438.037 132.446 435.676 133.53 433.68 135.098C432.931 135.624 432.344 136.338 431.982 137.165C431.62 137.993 431.495 138.904 431.621 139.805L433.553 147.935L454.322 143.876L452.389 135.747C452.102 134.847 451.565 134.035 450.839 133.401C450.112 132.767 449.223 132.335 448.271 132.152Z" fill="black"/>
<path d="M450.149 140.308C447.621 139.65 444.983 139.574 442.448 140.085C439.913 140.597 437.553 141.683 435.559 143.254C434.745 143.718 434.108 144.42 433.737 145.262C433.366 146.104 433.28 147.044 433.49 147.949C433.7 148.854 434.197 149.68 434.91 150.31C435.623 150.94 436.517 151.343 437.466 151.463C439.989 152.114 442.621 152.191 445.151 151.686C447.682 151.182 450.042 150.11 452.043 148.557C452.795 148.023 453.383 147.302 453.747 146.469C454.111 145.635 454.238 144.718 454.116 143.81C453.83 142.944 453.312 142.162 452.614 141.546C451.916 140.93 451.065 140.503 450.149 140.308Z" fill="#FFA500"/>
<path opacity="0.25" d="M450.149 140.308C447.621 139.65 444.983 139.574 442.448 140.085C439.913 140.597 437.553 141.683 435.559 143.254C434.745 143.718 434.108 144.42 433.737 145.262C433.366 146.104 433.28 147.044 433.49 147.949C433.7 148.854 434.197 149.68 434.91 150.31C435.623 150.94 436.517 151.343 437.466 151.463C439.989 152.114 442.621 152.191 445.151 151.686C447.682 151.182 450.042 150.11 452.043 148.557C452.795 148.023 453.383 147.302 453.747 146.469C454.111 145.635 454.238 144.718 454.116 143.81C453.83 142.944 453.312 142.162 452.614 141.546C451.916 140.93 451.065 140.503 450.149 140.308Z" fill="black"/>
<path d="M333.972 552.383L341.978 544.743L121.889 172.749C115.879 162.56 107.649 153.727 97.7862 146.88C97.7284 146.819 97.6589 146.768 97.5816 146.732C97.5043 146.696 97.4208 146.675 97.3359 146.67C97.2509 146.665 97.1662 146.676 97.0865 146.703C97.0068 146.73 96.9337 146.771 96.8714 146.826C96.8091 146.88 96.7588 146.947 96.7233 147.02C96.6879 147.094 96.668 147.175 96.6648 147.257C96.6616 147.339 96.6752 147.421 96.7048 147.499C96.7344 147.577 96.7794 147.648 96.8372 147.71L333.972 552.383Z" fill="#37474F"/>
</g>
</svg>
