<svg width="1195" height="500" viewBox="0 0 1195 500" fill="none" xmlns="http://www.w3.org/2000/svg">
<path d="M2 381.551C73.7474 336.222 148.459 294.547 217.588 245.463C248.902 223.229 280.231 201.246 312.765 180.692C344.731 160.496 378.814 143.662 411.22 124.101C428.201 113.851 445.277 103.745 462.186 93.3999C473.364 86.5612 446.274 113.856 438.342 124.101C404.001 168.457 369.564 212.719 336.211 257.782C315.431 285.86 293.513 313.888 279.979 346.133C274.424 359.369 265.539 385.646 275.409 399.259C284.536 411.847 303.678 417.495 318.328 419.951C393.174 432.5 465.853 381.743 522.988 342.38C603.477 286.926 674.87 220.31 747.12 155.38C791.544 115.457 832.918 72.8578 875.479 31.1309C884.747 22.045 910.656 -6.49373 903.893 4.47164C857.717 79.3493 804.332 150.336 755.664 223.713C711.87 289.741 670.729 357.524 637.24 429.094C629.168 446.345 622.172 465.192 622.834 484.434C623.466 502.798 654.756 498.397 665.753 494.732C683.962 488.662 696.393 480.068 711.752 468.361C744.941 443.066 774.049 412.738 802.756 382.898C850.153 333.63 894.815 282.134 945.223 235.647C982.816 200.977 1021.74 167.946 1063.05 137.479C1070.74 131.809 1090.83 114.924 1088.48 124.005C1085.91 133.963 1081 143.133 1077.26 152.685C1067.89 176.603 1061.7 201.351 1054.9 226.022C1045.26 261.041 1032.56 295.191 1025.8 330.927C1022.63 347.663 1020.85 364.571 1019.93 381.551C1019.68 386.145 1018.15 395.091 1020.03 399.837C1022.74 406.643 1036.33 396.771 1038.81 394.64C1070.16 367.644 1089.33 325.216 1107.06 289.831C1137.57 228.951 1162.55 165.84 1189.82 103.602C1191.72 99.2764 1193 96.6337 1193 92.245" stroke="#FFA500" stroke-width="2.53101" stroke-linecap="round"/>
</svg>
